<svg width="160" height="160" viewBox="0 0 160 160" fill="none" xmlns="http://www.w3.org/2000/svg">
<g filter="url(#filter0_d)">
<rect x="64" y="57" width="32" height="32" rx="8" fill="white" fill-opacity="0.8"/>
</g>
<path d="M80.0625 70.1875L82.8125 72.9375L77.9375 77.8125C77.8125 77.9375 77.6875 78 77.5 78H75.625C75.25 78 75 77.75 75 77.375V75.5C75 75.3125 75.0625 75.1875 75.1875 75.0625L80.0625 70.1875ZM84.8125 70.0625C85.0625 70.3125 85.0625 70.6875 84.8125 70.9375L83.6875 72.0625L80.9375 69.3125L82.0625 68.1875C82.3125 67.9375 82.6875 67.9375 82.9375 68.1875L84.8125 70.0625Z" fill="#6979F8"/>
<defs>
<filter id="filter0_d" x="0" y="0" width="160" height="160" filterUnits="userSpaceOnUse" color-interpolation-filters="sRGB">
<feFlood flood-opacity="0" result="BackgroundImageFix"/>
<feColorMatrix in="SourceAlpha" type="matrix" values="0 0 0 0 0 0 0 0 0 0 0 0 0 0 0 0 0 0 127 0"/>
<feOffset dy="7"/>
<feGaussianBlur stdDeviation="32"/>
<feColorMatrix type="matrix" values="0 0 0 0 0 0 0 0 0 0 0 0 0 0 0 0 0 0 0.07 0"/>
<feBlend mode="normal" in2="BackgroundImageFix" result="effect1_dropShadow"/>
<feBlend mode="normal" in="SourceGraphic" in2="effect1_dropShadow" result="shape"/>
</filter>
</defs>
</svg>
