<?xml version="1.0" encoding="UTF-8"?>
<svg width="204px" height="279px" viewBox="0 0 204 279" version="1.1" xmlns="http://www.w3.org/2000/svg" xmlns:xlink="http://www.w3.org/1999/xlink">
    <!-- Generator: Sketch 56.2 (81672) - https://sketch.com -->
    <title>Group</title>
    <desc>Created with Sketch.</desc>
    <defs>
        <linearGradient x1="50%" y1="0%" x2="50%" y2="100%" id="linearGradient-1">
            <stop stop-color="#BD7AE3" offset="0%"></stop>
            <stop stop-color="#8461C9" offset="100%"></stop>
        </linearGradient>
        <linearGradient x1="50%" y1="0%" x2="50%" y2="100%" id="linearGradient-2">
            <stop stop-color="#BD7AE3" offset="0%"></stop>
            <stop stop-color="#8461C9" offset="100%"></stop>
        </linearGradient>
    </defs>
    <g id="Page-1" stroke="none" stroke-width="1" fill="none" fill-rule="evenodd">
        <g id="Desktop-HD" transform="translate(-618.000000, -326.000000)">
            <g id="Group" transform="translate(617.000000, 326.000000)">
                <path d="M84.6739484,258.369894 C61.2802152,253.427564 51.3877622,249.093579 39.4574088,238.431388 C31.5038398,231.323261 24.4230424,222.64033 18.2150165,212.382595 C13.1339592,205.588663 9.51985962,199.16222 7.37271767,193.103264 C5.22557573,187.044308 3.50424495,177.141995 2.20872534,163.396325 C1.30927699,155.172261 0.904828502,149.248167 0.995379865,145.624043 C1.23014724,136.227981 3.08339544,128.289059 4.43639089,122.030104 C7.64006791,107.2099 9.83167428,104.384851 16.0060557,94.3860652 C20.12231,87.7202078 27.4717369,78.7879334 38.0543364,67.589242 L55.69916,47.7333911 C64.2790022,37.6723547 69.8795824,30.2526709 72.5009004,25.4743397 C75.1222185,20.6960084 78.8265501,12.2045618 83.6138951,1.13686838e-13 C108.498375,40.8276058 121.918828,65.4636838 123.875254,73.9082338 C125.426152,80.6023965 126.744503,92.8608548 127.830307,110.683609 C135.458277,101.46414 140.972758,92.9527184 144.373749,85.1493441 C147.774741,77.3459698 149.781197,68.6010472 150.393116,58.9145764 C162.445211,66.2835501 173.0361,76.8406884 182.165784,90.5859914 C191.295467,104.331294 198.352157,120.343677 203.335853,138.62314 C205.504622,151.51493 203.937617,166.270265 198.634837,182.889145 C190.680667,207.817465 192.431129,208.954347 174.559437,228.808254 C162.644976,242.044192 148.189266,251.712098 131.192308,257.811972 C115.77589,261.478807 100.26977,261.664781 84.6739484,258.369894 Z" id="Path-2" fill="#6812BD"></path>
                <path d="M83.6485987,0.643410362 C86.6707336,4.96170802 88.6170098,9.04497052 89.4874272,12.8931979 C91.4172775,21.4253134 92.0702428,31.9776534 90.3564949,53.3932075 C86.0467377,107.249346 99.4462829,130.159429 109.199702,111.864541 C115.701982,99.6679488 122.746716,84.4027801 130.333905,66.0690346 C141.101127,84.2908005 144.77088,103.116873 141.343162,122.547252 C137.915444,141.97763 129.295448,162.468883 115.483172,184.02101 C112.349195,186.600863 104.258652,191.200531 91.2115448,197.820014 C71.6408836,207.749237 59.5341255,207.527544 45.4633944,205.761678 C36.0829071,204.584434 26.6122958,200.689081 17.0515607,194.075621 C8.88974113,187.427797 3.94009873,175.737896 2.20263349,159.005918 C1.14131363,148.785293 1.15702275,138.171585 3.39852134,126.896562 C4.0754583,123.491483 4.87740504,118.542788 6.90707049,112.454906 C7.03822045,112.061529 7.20640237,111.57209 7.40931921,111.000441 C7.52886899,110.66365 7.56260029,110.514616 7.7057937,110.123586 C7.84386184,109.746551 8.09057748,109.129329 8.24976921,108.707041 C8.44075375,108.200416 8.64962714,107.365173 9.03299888,106.459059 C9.28623405,105.860528 10.0968957,104.23631 11.4649838,101.586404 C14.8326325,95.8487877 17.6147408,91.5029783 19.8113086,88.5489758 C20.0639264,88.2092487 21.5903799,86.276071 21.8479829,85.9337645 C23.9882328,83.08977 25.4458625,81.2885585 27.9777345,78.620063 C28.9491776,77.5961994 30.4947116,75.9489427 31.6029302,74.5489817 C41.0908473,62.5633378 48.2660661,55.7595867 54.2557245,49.2343114 C58.9849051,44.0822302 63.0794522,39.4295559 67.2590887,33.3772545 C70.7196718,28.3661746 72.351558,25.5300634 73.7083389,23.1490598 C76.0657195,19.0121121 77.1905495,16.1024765 78.8285201,11.9920016 C80.4830109,7.84006966 82.0897037,4.05720591 83.6485987,0.643410362 Z" id="Path-3" fill="url(#linearGradient-1)"></path>
                <path d="M139.0902,212.970923 C149.643342,194.883218 156.395444,179.555511 159.346508,166.987805 C163.773105,148.136245 162.899153,146.067683 161.729544,116.556677 C160.949805,96.8826741 157.737523,78.8070307 152.092699,62.3297471 L171.35961,91.32185 C176.665519,100.462742 180.085713,109.818845 181.620192,119.39016 C183.92191,133.747133 185.351671,137.080569 182.422337,157.131772 C179.493003,177.182974 174.401666,185.98271 164.753809,201.850846 C158.321904,212.429603 147.210694,220.37621 131.420179,225.690666 L139.0902,212.970923 Z" id="Path-7" fill="url(#linearGradient-2)"></path>
                <path d="M56.1747072,278.479293 C54.6131576,273.249918 54.6131576,269.160293 56.1747072,266.21042 C57.7362567,263.260546 61.4072161,260.415478 67.1875853,257.675215 C75.859843,255.098604 86.1927214,253.930497 98.1862204,254.170894 C116.176469,254.53149 121.356348,256.145582 131.269299,258.959667 C139.277531,261.233042 139.691543,261.875676 141.372524,264.110332 C142.493178,265.600103 141.969129,270.389756 139.800378,278.479293 C132.486113,273.347248 124.656808,270.078659 116.312463,268.673527 C103.795946,266.565829 95.0456811,266.492308 79.0621677,268.905481 C68.4064921,270.514263 60.7773386,273.705534 56.1747072,278.479293 Z" id="Path-6" fill="#A5AFFB" transform="translate(98.474378, 266.309707) rotate(-180.000000) translate(-98.474378, -266.309707) "></path>
            </g>
        </g>
    </g>
</svg>